<svg width="25" height="24" viewBox="0 0 25 24" fill="none" xmlns="http://www.w3.org/2000/svg">
<path d="M14.58 15.59L17.17 13H7.5V11H17.17L14.58 8.41L16 7L21 12L16 17L14.58 15.59ZM19.5 3C20.0304 3 20.5391 3.21071 20.9142 3.58579C21.2893 3.96086 21.5 4.46957 21.5 5V9.67L19.5 7.67V5H5.5V19H19.5V16.33L21.5 14.33V19C21.5 19.5304 21.2893 20.0391 20.9142 20.4142C20.5391 20.7893 20.0304 21 19.5 21H5.5C4.96957 21 4.46086 20.7893 4.08579 20.4142C3.71071 20.0391 3.5 19.5304 3.5 19V5C3.5 3.89 4.39 3 5.5 3H19.5Z" fill="black"/>
</svg>
