<svg width="34" height="32" viewBox="0 0 34 32" fill="none" xmlns="http://www.w3.org/2000/svg">
<rect width="34" height="31.8" rx="4" fill="#3FEECF"/>
<path d="M24.8 25.8L22.15 23.2H11.5C9.96667 23.2 8.66667 22.6667 7.6 21.6C6.53333 20.5333 6 19.2333 6 17.7C6 16.42 6.39667 15.28 7.19 14.28C7.98333 13.2733 9.00333 12.63 10.25 12.35C10.3033 12.2167 10.3533 12.0867 10.4 11.96C10.4667 11.8333 10.5167 11.6967 10.55 11.55L6.4 7.4L7.8 6L26.2 24.4M11.5 21.2H20.15L12.1 13.15C12.0667 13.3367 12.0433 13.52 12.03 13.7C12.01 13.8533 12 14.02 12 14.2H11.5C10.5333 14.2 9.71 14.5433 9.03 15.23C8.34333 15.91 8 16.7333 8 17.7C8 18.6667 8.34333 19.5 9.03 20.2C9.71 20.8667 10.5333 21.2 11.5 21.2ZM26.6 21.95L25.15 20.55C25.4367 20.3167 25.65 20.0467 25.79 19.74C25.93 19.4333 26 19.0867 26 18.7C26 18 25.7567 17.41 25.27 16.93C24.79 16.4433 24.2 16.2 23.5 16.2H22V14.2C22 12.82 21.5133 11.64 20.54 10.66C19.5667 9.68667 18.3867 9.2 17 9.2C16.5533 9.2 16.12 9.25333 15.7 9.36C15.28 9.47333 14.88 9.64667 14.5 9.88L13.05 8.43C13.6367 8.03 14.2567 7.72333 14.91 7.51C15.57 7.30333 16.2667 7.2 17 7.2C18.9533 7.2 20.6067 7.88 21.96 9.24C23.32 10.5933 24 12.2467 24 14.2C25.1533 14.3333 26.1067 14.8333 26.86 15.7C27.62 16.5533 28 17.5533 28 18.7C28 19.3667 27.8767 19.97 27.63 20.51C27.3767 21.07 27.0333 21.55 26.6 21.95Z" fill="black"/>
</svg>
