<svg width="35" height="32" viewBox="0 0 35 32" fill="none" xmlns="http://www.w3.org/2000/svg">
<g opacity="0.6">
<rect x="0.5" y="0.100006" width="34" height="31.8" rx="4" fill="#E5E5E5"/>
<path d="M25.3 25.9L22.65 23.3H12C10.4667 23.3 9.16667 22.7667 8.1 21.7C7.03333 20.6333 6.5 19.3333 6.5 17.8C6.5 16.52 6.89667 15.38 7.69 14.38C8.48333 13.3733 9.50333 12.73 10.75 12.45C10.8033 12.3167 10.8533 12.1867 10.9 12.06C10.9667 11.9333 11.0167 11.7967 11.05 11.65L6.9 7.50001L8.3 6.10001L26.7 24.5M12 21.3H20.65L12.6 13.25C12.5667 13.4367 12.5433 13.62 12.53 13.8C12.51 13.9533 12.5 14.12 12.5 14.3H12C11.0333 14.3 10.21 14.6433 9.53 15.33C8.84333 16.01 8.5 16.8333 8.5 17.8C8.5 18.7667 8.84333 19.6 9.53 20.3C10.21 20.9667 11.0333 21.3 12 21.3ZM27.1 22.05L25.65 20.65C25.9367 20.4167 26.15 20.1467 26.29 19.84C26.43 19.5333 26.5 19.1867 26.5 18.8C26.5 18.1 26.2567 17.51 25.77 17.03C25.29 16.5433 24.7 16.3 24 16.3H22.5V14.3C22.5 12.92 22.0133 11.74 21.04 10.76C20.0667 9.78667 18.8867 9.30001 17.5 9.30001C17.0533 9.30001 16.62 9.35334 16.2 9.46001C15.78 9.57334 15.38 9.74667 15 9.98001L13.55 8.53001C14.1367 8.13001 14.7567 7.82334 15.41 7.61001C16.07 7.40334 16.7667 7.30001 17.5 7.30001C19.4533 7.30001 21.1067 7.98001 22.46 9.34001C23.82 10.6933 24.5 12.3467 24.5 14.3C25.6533 14.4333 26.6067 14.9333 27.36 15.8C28.12 16.6533 28.5 17.6533 28.5 18.8C28.5 19.4667 28.3767 20.07 28.13 20.61C27.8767 21.17 27.5333 21.65 27.1 22.05Z" fill="black"/>
</g>
</svg>
