<svg width="35" height="32" viewBox="0 0 35 32" fill="none" xmlns="http://www.w3.org/2000/svg">
<rect x="0.5" width="34" height="32" rx="4" fill="#3FEECF"/>
<path d="M12 24C10.48 24 9.18333 23.4767 8.11 22.43C7.03667 21.3767 6.5 20.0933 6.5 18.58C6.5 17.28 6.89 16.12 7.67 15.1C8.45667 14.08 9.48333 13.43 10.75 13.15C11.17 11.6167 12.0033 10.3767 13.25 9.43C14.5033 8.47667 15.92 8 17.5 8C19.4533 8 21.1067 8.68 22.46 10.04C23.82 11.3933 24.5 13.0467 24.5 15C25.6533 15.1333 26.6067 15.6333 27.36 16.5C28.12 17.3533 28.5 18.3533 28.5 19.5C28.5 20.7533 28.0633 21.8167 27.19 22.69C26.3167 23.5633 25.2533 24 24 24M12 22H24C24.7 22 25.29 21.7567 25.77 21.27C26.2567 20.79 26.5 20.2 26.5 19.5C26.5 18.8 26.2567 18.21 25.77 17.73C25.29 17.2433 24.7 17 24 17H22.5V15C22.5 13.62 22.0133 12.44 21.04 11.46C20.0667 10.4867 18.8867 10 17.5 10C16.12 10 14.94 10.4867 13.96 11.46C12.9867 12.44 12.5 13.62 12.5 15H12C11.0333 15 10.21 15.3433 9.53 16.03C8.84333 16.71 8.5 17.5333 8.5 18.5C8.5 19.4667 8.84333 20.3 9.53 21C10.21 21.6667 11.0333 22 12 22Z" fill="black"/>
</svg>
