<svg width="34" height="32" viewBox="0 0 34 32" fill="none" xmlns="http://www.w3.org/2000/svg">
<g opacity="0.6">
<rect width="34" height="32" rx="4" fill="#E5E5E5"/>
<path d="M11.5 24C9.98 24 8.68333 23.4767 7.61 22.43C6.53667 21.3767 6 20.0933 6 18.58C6 17.28 6.39 16.12 7.17 15.1C7.95667 14.08 8.98333 13.43 10.25 13.15C10.67 11.6167 11.5033 10.3767 12.75 9.43C14.0033 8.47667 15.42 8 17 8C18.9533 8 20.6067 8.68 21.96 10.04C23.32 11.3933 24 13.0467 24 15C25.1533 15.1333 26.1067 15.6333 26.86 16.5C27.62 17.3533 28 18.3533 28 19.5C28 20.7533 27.5633 21.8167 26.69 22.69C25.8167 23.5633 24.7533 24 23.5 24M11.5 22H23.5C24.2 22 24.79 21.7567 25.27 21.27C25.7567 20.79 26 20.2 26 19.5C26 18.8 25.7567 18.21 25.27 17.73C24.79 17.2433 24.2 17 23.5 17H22V15C22 13.62 21.5133 12.44 20.54 11.46C19.5667 10.4867 18.3867 10 17 10C15.62 10 14.44 10.4867 13.46 11.46C12.4867 12.44 12 13.62 12 15H11.5C10.5333 15 9.71 15.3433 9.03 16.03C8.34333 16.71 8 17.5333 8 18.5C8 19.4667 8.34333 20.3 9.03 21C9.71 21.6667 10.5333 22 11.5 22Z" fill="black"/>
</g>
</svg>
