<svg width="37" height="35" viewBox="0 0 37 35" fill="none" xmlns="http://www.w3.org/2000/svg">
<rect x="0.75" width="35.75" height="34.5" rx="8" fill="#3FEECF"/>
<path d="M26.75 11H30.5L25.5 6L20.5 11H24.25V28.5H26.75M9.25 18.5C7.8625 18.5 6.75 19.6125 6.75 21V26C6.75 27.3875 7.8625 28.5 9.25 28.5H14.25C15.6375 28.5 16.75 27.3875 16.75 26V21C16.75 19.6125 15.6375 18.5 14.25 18.5M14.5 20.375L15.825 21.6875L10.8375 26.625L7.675 23.4375L9.0125 22.125L10.85 23.9875M9.25 6C7.8625 6 6.75 7.1125 6.75 8.5V13.5C6.75 14.8875 7.8625 16 9.25 16H14.25C15.6375 16 16.75 14.8875 16.75 13.5V8.5C16.75 7.1125 15.6375 6 14.25 6M9.25 8.5H14.25V13.5H9.25V8.5Z" fill="black"/>
</svg>
