<svg width="38" height="35" viewBox="0 0 38 35" fill="none" xmlns="http://www.w3.org/2000/svg">
<rect x="0.5" width="37.25" height="34.5" rx="8" fill="#3FEECF"/>
<path d="M26 11H29.75L24.75 6L19.75 11H23.5V28.5H26M13.5 28.5H8.5V26H13.5V24.75H11C10.337 24.75 9.70107 24.4866 9.23223 24.0178C8.76339 23.5489 8.5 22.913 8.5 22.25V21C8.5 19.625 9.625 18.5 11 18.5H13.5C14.163 18.5 14.7989 18.7634 15.2678 19.2322C15.7366 19.7011 16 20.337 16 21V26C16 27.3875 14.8875 28.5 13.5 28.5ZM13.5 21H11V22.25H13.5M11 6H13.5C14.163 6 14.7989 6.26339 15.2678 6.73223C15.7366 7.20107 16 7.83696 16 8.5V13.5C16 14.8875 14.8875 16 13.5 16H11C10.337 16 9.70107 15.7366 9.23223 15.2678C8.76339 14.7989 8.5 14.163 8.5 13.5V8.5C8.5 7.125 9.625 6 11 6ZM11 13.5H13.5V8.5H11V13.5Z" fill="black"/>
</svg>
